<mxfile host="app.diagrams.net" modified="2023-07-24T00:46:06.032Z" agent="Mozilla/5.0 (Windows NT 10.0; Win64; x64) AppleWebKit/537.36 (KHTML, like Gecko) Chrome/114.0.0.0 Safari/537.36" etag="0L4-9EA5wg4yP7Jb1ODE" version="21.6.5" type="device">
  <diagram name="Page-1" id="30-4BouXEhI8GLFfP879">
    <mxGraphModel dx="1434" dy="764" grid="1" gridSize="10" guides="1" tooltips="1" connect="1" arrows="1" fold="1" page="1" pageScale="1" pageWidth="850" pageHeight="1100" math="0" shadow="0">
      <root>
        <mxCell id="0" />
        <mxCell id="1" parent="0" />
        <mxCell id="8JseklKQ5mCpBVecZhqy-32" value="" style="rounded=0;whiteSpace=wrap;html=1;align=center;fillColor=#d5e8d4;strokeColor=#82b366;" vertex="1" parent="1">
          <mxGeometry x="200" y="180" width="200" height="230" as="geometry" />
        </mxCell>
        <mxCell id="8JseklKQ5mCpBVecZhqy-29" value="" style="rounded=0;whiteSpace=wrap;html=1;align=center;fillColor=#dae8fc;strokeColor=#6c8ebf;" vertex="1" parent="1">
          <mxGeometry y="180" width="200" height="230" as="geometry" />
        </mxCell>
        <mxCell id="8JseklKQ5mCpBVecZhqy-56" value="" style="edgeStyle=orthogonalEdgeStyle;rounded=0;orthogonalLoop=1;jettySize=auto;html=1;" edge="1" parent="1" source="8JseklKQ5mCpBVecZhqy-41" target="8JseklKQ5mCpBVecZhqy-34">
          <mxGeometry relative="1" as="geometry" />
        </mxCell>
        <mxCell id="8JseklKQ5mCpBVecZhqy-41" value="" style="rounded=0;whiteSpace=wrap;html=1;align=center;fillColor=#f8cecc;strokeColor=#b85450;" vertex="1" parent="1">
          <mxGeometry x="400" y="180" width="200" height="230" as="geometry" />
        </mxCell>
        <mxCell id="8JseklKQ5mCpBVecZhqy-46" value="" style="rounded=0;whiteSpace=wrap;html=1;align=center;fillColor=#ffe6cc;strokeColor=#d79b00;" vertex="1" parent="1">
          <mxGeometry x="600" y="180" width="200" height="230" as="geometry" />
        </mxCell>
        <mxCell id="8JseklKQ5mCpBVecZhqy-15" value="" style="rounded=0;whiteSpace=wrap;html=1;align=center;fillColor=#e1d5e7;strokeColor=#9673a6;" vertex="1" parent="1">
          <mxGeometry width="800" height="180" as="geometry" />
        </mxCell>
        <mxCell id="8JseklKQ5mCpBVecZhqy-1" value="Entity" style="rounded=1;whiteSpace=wrap;html=1;" vertex="1" parent="1">
          <mxGeometry x="40" y="40" width="120" height="60" as="geometry" />
        </mxCell>
        <mxCell id="8JseklKQ5mCpBVecZhqy-60" style="edgeStyle=orthogonalEdgeStyle;rounded=0;orthogonalLoop=1;jettySize=auto;html=1;entryX=0.5;entryY=1;entryDx=0;entryDy=0;" edge="1" parent="1" source="8JseklKQ5mCpBVecZhqy-2" target="8JseklKQ5mCpBVecZhqy-1">
          <mxGeometry relative="1" as="geometry" />
        </mxCell>
        <mxCell id="8JseklKQ5mCpBVecZhqy-2" value="EntityRow" style="rounded=1;whiteSpace=wrap;html=1;" vertex="1" parent="1">
          <mxGeometry x="40" y="210" width="120" height="60" as="geometry" />
        </mxCell>
        <mxCell id="8JseklKQ5mCpBVecZhqy-63" style="edgeStyle=orthogonalEdgeStyle;rounded=0;orthogonalLoop=1;jettySize=auto;html=1;entryX=0.5;entryY=1;entryDx=0;entryDy=0;" edge="1" parent="1" source="8JseklKQ5mCpBVecZhqy-3" target="8JseklKQ5mCpBVecZhqy-1">
          <mxGeometry relative="1" as="geometry" />
        </mxCell>
        <mxCell id="8JseklKQ5mCpBVecZhqy-3" value="EntityFX" style="rounded=1;whiteSpace=wrap;html=1;" vertex="1" parent="1">
          <mxGeometry x="40" y="330" width="120" height="60" as="geometry" />
        </mxCell>
        <mxCell id="8JseklKQ5mCpBVecZhqy-37" style="edgeStyle=orthogonalEdgeStyle;rounded=0;orthogonalLoop=1;jettySize=auto;html=1;entryX=1;entryY=0.5;entryDx=0;entryDy=0;exitX=0.5;exitY=0;exitDx=0;exitDy=0;" edge="1" parent="1" source="8JseklKQ5mCpBVecZhqy-4" target="8JseklKQ5mCpBVecZhqy-1">
          <mxGeometry relative="1" as="geometry" />
        </mxCell>
        <mxCell id="8JseklKQ5mCpBVecZhqy-4" value="Workspace" style="rounded=1;whiteSpace=wrap;html=1;" vertex="1" parent="1">
          <mxGeometry x="240" y="90" width="120" height="60" as="geometry" />
        </mxCell>
        <mxCell id="8JseklKQ5mCpBVecZhqy-26" value="extends" style="edgeStyle=orthogonalEdgeStyle;rounded=0;orthogonalLoop=1;jettySize=auto;html=1;entryX=1;entryY=0.5;entryDx=0;entryDy=0;labelBackgroundColor=none;" edge="1" parent="1" source="8JseklKQ5mCpBVecZhqy-5" target="8JseklKQ5mCpBVecZhqy-2">
          <mxGeometry relative="1" as="geometry" />
        </mxCell>
        <mxCell id="8JseklKQ5mCpBVecZhqy-5" value="WorkspaceRow" style="rounded=1;whiteSpace=wrap;html=1;" vertex="1" parent="1">
          <mxGeometry x="240" y="210" width="120" height="60" as="geometry" />
        </mxCell>
        <mxCell id="8JseklKQ5mCpBVecZhqy-27" value="extends" style="edgeStyle=orthogonalEdgeStyle;rounded=0;orthogonalLoop=1;jettySize=auto;html=1;entryX=1;entryY=0.5;entryDx=0;entryDy=0;labelBackgroundColor=none;" edge="1" parent="1" source="8JseklKQ5mCpBVecZhqy-6" target="8JseklKQ5mCpBVecZhqy-3">
          <mxGeometry relative="1" as="geometry" />
        </mxCell>
        <mxCell id="8JseklKQ5mCpBVecZhqy-6" value="WorkspaceFX" style="rounded=1;whiteSpace=wrap;html=1;" vertex="1" parent="1">
          <mxGeometry x="240" y="330" width="120" height="60" as="geometry" />
        </mxCell>
        <mxCell id="8JseklKQ5mCpBVecZhqy-33" value="" style="edgeStyle=orthogonalEdgeStyle;rounded=0;orthogonalLoop=1;jettySize=auto;html=1;labelBackgroundColor=none;entryX=1;entryY=0.5;entryDx=0;entryDy=0;exitX=0.5;exitY=0;exitDx=0;exitDy=0;" edge="1" parent="1" source="8JseklKQ5mCpBVecZhqy-34" target="8JseklKQ5mCpBVecZhqy-1">
          <mxGeometry x="-0.0057" relative="1" as="geometry">
            <mxPoint x="360" y="190" as="targetPoint" />
            <Array as="points">
              <mxPoint x="500" y="70" />
            </Array>
            <mxPoint as="offset" />
          </mxGeometry>
        </mxCell>
        <mxCell id="8JseklKQ5mCpBVecZhqy-34" value="Card" style="rounded=1;whiteSpace=wrap;html=1;" vertex="1" parent="1">
          <mxGeometry x="440" y="90" width="120" height="60" as="geometry" />
        </mxCell>
        <mxCell id="8JseklKQ5mCpBVecZhqy-35" value="" style="edgeStyle=orthogonalEdgeStyle;rounded=0;orthogonalLoop=1;jettySize=auto;html=1;labelBackgroundColor=none;entryX=1;entryY=0.5;entryDx=0;entryDy=0;exitX=0.5;exitY=0;exitDx=0;exitDy=0;" edge="1" parent="1" source="8JseklKQ5mCpBVecZhqy-36" target="8JseklKQ5mCpBVecZhqy-1">
          <mxGeometry relative="1" as="geometry">
            <mxPoint x="560" y="190" as="targetPoint" />
            <Array as="points">
              <mxPoint x="700" y="70" />
            </Array>
          </mxGeometry>
        </mxCell>
        <mxCell id="8JseklKQ5mCpBVecZhqy-59" value="extends" style="edgeLabel;html=1;align=center;verticalAlign=middle;resizable=0;points=[];labelBackgroundColor=none;" vertex="1" connectable="0" parent="8JseklKQ5mCpBVecZhqy-35">
          <mxGeometry x="0.4954" y="3" relative="1" as="geometry">
            <mxPoint x="-101" y="-13" as="offset" />
          </mxGeometry>
        </mxCell>
        <mxCell id="8JseklKQ5mCpBVecZhqy-36" value="CardFace" style="rounded=1;whiteSpace=wrap;html=1;" vertex="1" parent="1">
          <mxGeometry x="640" y="90" width="120" height="60" as="geometry" />
        </mxCell>
        <mxCell id="8JseklKQ5mCpBVecZhqy-44" value="CardRow" style="rounded=1;whiteSpace=wrap;html=1;" vertex="1" parent="1">
          <mxGeometry x="440" y="210" width="120" height="60" as="geometry" />
        </mxCell>
        <mxCell id="8JseklKQ5mCpBVecZhqy-45" value="CardFX" style="rounded=1;whiteSpace=wrap;html=1;" vertex="1" parent="1">
          <mxGeometry x="440" y="330" width="120" height="60" as="geometry" />
        </mxCell>
        <mxCell id="8JseklKQ5mCpBVecZhqy-49" value="WorkspaceRow" style="rounded=1;whiteSpace=wrap;html=1;" vertex="1" parent="1">
          <mxGeometry x="640" y="210" width="120" height="60" as="geometry" />
        </mxCell>
        <mxCell id="8JseklKQ5mCpBVecZhqy-50" value="WorkspaceFX" style="rounded=1;whiteSpace=wrap;html=1;" vertex="1" parent="1">
          <mxGeometry x="640" y="330" width="120" height="60" as="geometry" />
        </mxCell>
      </root>
    </mxGraphModel>
  </diagram>
</mxfile>
